# xmcd CD database file
#
# Track frame offsets:
#	150
#	20518
#	40593
#	65625
#	90287
#	116565
#	140088
#	162786
#	184648
#	206162
#
# Disc length: 3115 seconds
#
# Revision: 7
# Processed by: cddbd v1.5.1PL2 Copyright (c) Steve Scherf et al.
# Submitted via: CDex 1.51
#
DISCID=830c290a
DTITLE=浜田省吾 - Sand Castle
DYEAR=1983
DGENRE=Ballad
TTITLE0=君に会うまでは
TTITLE1=君の微笑
TTITLE2=散歩道
TTITLE3=いつわりの日々
TTITLE4=愛という名のもとに
TTITLE5=朝のシルエット
TTITLE6=丘の上の愛
TTITLE7=片想い
TTITLE8=陽のあたる場所
TTITLE9=愛しい人へ
EXTD=YEAR: 1983
EXTT0=
EXTT1=
EXTT2=
EXTT3=
EXTT4=
EXTT5=
EXTT6=
EXTT7=
EXTT8=
EXTT9=
PLAYORDER=
